<svg t="1595574449035" class="icon" viewBox="0 0 1024 1024" version="1.1" xmlns="http://www.w3.org/2000/svg" p-id="25434" width="200" height="200"><path d="M789.557895 886.568421c-10.778947 0-18.863158 8.084211-18.863158 18.863158v24.252632c0 10.778947-10.778947 21.557895-21.557895 21.557894H118.568421c-10.778947 0-21.557895-10.778947-21.557895-21.557894V231.747368H188.631579c40.421053 0 72.757895-32.336842 72.757895-72.757894V72.757895h485.052631c10.778947 0 21.557895 10.778947 21.557895 21.557894V377.263158c0 10.778947 8.084211 18.863158 18.863158 18.863158s21.557895-8.084211 21.557895-18.863158V94.315789c0-32.336842-26.947368-59.284211-59.284211-59.28421H245.221053 237.136842c-2.694737 0-2.694737 2.694737-2.694737 2.694737s-2.694737 0-2.694737 2.694737L64.673684 199.410526s-2.694737 2.694737-2.694737 5.389474v727.578947c0 32.336842 26.947368 59.284211 59.284211 59.284211H754.526316c32.336842 0 59.284211-26.947368 59.28421-59.284211v-24.252631c-5.389474-13.473684-13.473684-21.557895-24.252631-21.557895zM188.631579 194.021053H123.957895l102.4-97.010527v59.284211c0 21.557895-16.168421 37.726316-37.726316 37.726316z" p-id="25435"></path><path d="M684.463158 328.757895c0-10.778947-8.084211-18.863158-18.863158-18.863158H202.105263c-10.778947 0-18.863158 8.084211-18.863158 18.863158s8.084211 18.863158 18.863158 18.863158h463.494737c10.778947 0 18.863158-8.084211 18.863158-18.863158zM579.368421 479.663158c0-10.778947-8.084211-18.863158-18.863158-18.863158H202.105263c-10.778947 0-18.863158 8.084211-18.863158 18.863158s8.084211 18.863158 18.863158 18.863158h358.4c10.778947 0 18.863158-8.084211 18.863158-18.863158zM487.747368 611.705263H202.105263c-10.778947 0-18.863158 8.084211-18.863158 18.863158s8.084211 18.863158 18.863158 18.863158H485.052632c10.778947 0 18.863158-8.084211 18.863157-18.863158s-5.389474-18.863158-16.168421-18.863158zM487.747368 762.610526H202.105263c-10.778947 0-18.863158 8.084211-18.863158 18.863158s8.084211 18.863158 18.863158 18.863158H485.052632c10.778947 0 18.863158-8.084211 18.863157-18.863158s-5.389474-18.863158-16.168421-18.863158zM754.526316 619.789474c2.694737-21.557895 18.863158-37.726316 40.421052-43.11579 10.778947-2.694737 16.168421-13.473684 13.473685-21.557895-2.694737-10.778947-13.473684-16.168421-21.557895-13.473684-35.031579 8.084211-61.978947 37.726316-67.368421 72.757895-2.694737 10.778947 5.389474 18.863158 16.168421 21.557895h2.694737c5.389474-2.694737 13.473684-8.084211 16.168421-16.168421z" p-id="25436"></path><path d="M945.852632 743.747368h-24.252632v-126.652631c0-75.452632-61.978947-137.431579-134.736842-137.431579-75.452632 0-134.736842 61.978947-134.736842 137.431579v126.652631h-16.168421c-10.778947 0-18.863158 8.084211-18.863158 18.863158s8.084211 18.863158 18.863158 18.863158h86.231579c8.084211 29.642105 35.031579 53.894737 67.368421 53.894737s59.284211-21.557895 67.368421-53.894737h91.621052c10.778947 0 18.863158-8.084211 18.863158-18.863158s-10.778947-18.863158-21.557894-18.863158z m-256-129.347368c0-56.589474 43.115789-99.705263 97.010526-99.705263s97.010526 45.810526 97.010526 99.705263v126.652632h-196.715789v-126.652632z m97.010526 180.547368c-10.778947 0-21.557895-5.389474-26.947369-16.168421h53.894737c-5.389474 10.778947-16.168421 16.168421-26.947368 16.168421z" p-id="25437"></path></svg>