<svg t="1595553383502" class="icon" viewBox="0 0 1024 1024" version="1.1" xmlns="http://www.w3.org/2000/svg" p-id="11457" width="200" height="200"><path d="M847.847559 688.657442 203.182051 688.657442c-22.363334 0-40.49325-18.129916-40.49325-40.49325L162.688801 193.820334c0-22.363334 18.128893-40.494273 40.49325-40.494273l644.665509 0c22.364357 0 40.494273 18.128893 40.494273 40.494273l0 454.342836C888.342856 670.527526 870.211916 688.657442 847.847559 688.657442zM838.938656 210.827683c0-4.473895-3.624551-8.099469-8.093329-8.099469L216.950635 202.728214c-4.471848 0-8.097422 3.625574-8.097422 8.099469L208.853214 635.20709c0 4.471848 3.625574 8.095375 8.097422 8.095375l613.890598 0c4.474918 0 8.096399-3.624551 8.096399-8.095375L838.937632 210.827683 838.938656 210.827683zM678.583504 346.887498l85.848227 0 0 249.440096-85.848227 0L678.583504 346.887498zM541.71323 269.948175l86.656639 0 0 326.379419-86.656639 0L541.71323 269.948175zM406.46285 424.636257l85.84925 0 0 171.691337-85.84925 0L406.46285 424.636257 406.46285 424.636257zM286.601972 500.764098l85.84618 0 0 95.565543-85.84618 0L286.601972 500.764098zM411.323555 721.052247c0-4.471848 3.625574-8.096399 8.099469-8.096399L629.98874 712.955848c4.474918 0 8.097422 3.626597 8.097422 8.096399l0 68.839855L776.577353 789.892101l0 48.592718L271.211447 838.484819l0-48.592718 140.111085 0L411.322531 721.052247z" p-id="11458"></path></svg><svg t="1595553383502" class="icon" viewBox="0 0 1024 1024" version="1.1" xmlns="http://www.w3.org/2000/svg" p-id="11457" width="200" height="200"><path d="M847.847559 688.657442 203.182051 688.657442c-22.363334 0-40.49325-18.129916-40.49325-40.49325L162.688801 193.820334c0-22.363334 18.128893-40.494273 40.49325-40.494273l644.665509 0c22.364357 0 40.494273 18.128893 40.494273 40.494273l0 454.342836C888.342856 670.527526 870.211916 688.657442 847.847559 688.657442zM838.938656 210.827683c0-4.473895-3.624551-8.099469-8.093329-8.099469L216.950635 202.728214c-4.471848 0-8.097422 3.625574-8.097422 8.099469L208.853214 635.20709c0 4.471848 3.625574 8.095375 8.097422 8.095375l613.890598 0c4.474918 0 8.096399-3.624551 8.096399-8.095375L838.937632 210.827683 838.938656 210.827683zM678.583504 346.887498l85.848227 0 0 249.440096-85.848227 0L678.583504 346.887498zM541.71323 269.948175l86.656639 0 0 326.379419-86.656639 0L541.71323 269.948175zM406.46285 424.636257l85.84925 0 0 171.691337-85.84925 0L406.46285 424.636257 406.46285 424.636257zM286.601972 500.764098l85.84618 0 0 95.565543-85.84618 0L286.601972 500.764098zM411.323555 721.052247c0-4.471848 3.625574-8.096399 8.099469-8.096399L629.98874 712.955848c4.474918 0 8.097422 3.626597 8.097422 8.096399l0 68.839855L776.577353 789.892101l0 48.592718L271.211447 838.484819l0-48.592718 140.111085 0L411.322531 721.052247z" p-id="11458"></path></svg>