<?xml version="1.0" standalone="no"?><!DOCTYPE svg PUBLIC "-//W3C//DTD SVG 1.1//EN" "http://www.w3.org/Graphics/SVG/1.1/DTD/svg11.dtd"><svg t="1592143772942" class="icon" viewBox="0 0 1024 1024" version="1.1" xmlns="http://www.w3.org/2000/svg" p-id="6384" xmlns:xlink="http://www.w3.org/1999/xlink" width="200" height="200"><defs><style type="text/css"></style></defs><path d="M512 0a512 512 0 1 0 512 512A512 512 0 0 0 512 0z m-5.973333 224a144.213333 144.213333 0 1 1-146.773334 143.786667 145.066667 145.066667 0 0 1 146.773334-143.786667z m256 534.186667c0 40.533333-85.333333 42.666667-189.013334 42.666666h-122.026666c-104.533333 0-189.013333 0-189.013334-42.666666v-11.946667a187.306667 187.306667 0 0 1 189.013334-186.026667h122.026666a187.306667 187.306667 0 0 1 189.013334 186.026667z" p-id="6385"></path></svg>