<svg t="1593761113775" class="icon" viewBox="0 0 1024 1024" version="1.1" xmlns="http://www.w3.org/2000/svg" p-id="13717" width="200" height="200"><path d="M787.328 183.552l12.544 12.672-61.312 63.808-0.96-1.024a334.4 334.4 0 0 0-486.208 0c-134.208 139.712-134.208 366.272 0 505.984a334.336 334.336 0 0 0 485.504 0.704l61.312 63.808c-168.128 174.208-440.192 174.016-608.128-0.704-168.128-174.976-168.128-458.624 0-633.6C354.368 24.32 618.496 20.352 787.328 183.552z m-14.912 173.952l220.16 141.056v18.624l-220.16 140.16V552.64H455.168v-90.24h317.248V357.504z" fill="" p-id="13718"></path></svg>