<?xml version="1.0" standalone="no"?><!DOCTYPE svg PUBLIC "-//W3C//DTD SVG 1.1//EN" "http://www.w3.org/Graphics/SVG/1.1/DTD/svg11.dtd"><svg t="1609596428396" class="icon" viewBox="0 0 1024 1024" version="1.1" xmlns="http://www.w3.org/2000/svg" p-id="1865" xmlns:xlink="http://www.w3.org/1999/xlink" width="200" height="200"><defs><style type="text/css"></style></defs><path d="M96 160h832c17.673 0 32 14.327 32 32v640c0 17.673-14.327 32-32 32H96c-17.673 0-32-14.327-32-32V192c0-17.673 14.327-32 32-32z m40 64a8 8 0 0 0-8 8v560a8 8 0 0 0 8 8h752a8 8 0 0 0 8-8V232a8 8 0 0 0-8-8H136z m159.833 232l-59.713 31.393a8 8 0 0 1-11.608-8.433l11.405-66.492-48.31-47.09a8 8 0 0 1 4.434-13.645l66.762-9.701 29.856-60.496a8 8 0 0 1 14.348 0l29.857 60.496 66.76 9.7a8 8 0 0 1 4.435 13.646l-48.31 47.09 11.405 66.492a8 8 0 0 1-11.608 8.433L295.833 456z m0 262l-59.713 31.393a8 8 0 0 1-11.608-8.433l11.405-66.492-48.31-47.09a8 8 0 0 1 4.434-13.645l66.762-9.701 29.856-60.496a8 8 0 0 1 14.348 0l29.857 60.496 66.76 9.7a8 8 0 0 1 4.435 13.646l-48.31 47.09 11.405 66.492a8 8 0 0 1-11.608 8.433L295.833 718zM505 339h292c24.3 0 44 19.7 44 44s-19.7 44-44 44H505c-24.3 0-44-19.7-44-44s19.7-44 44-44z m0 260h292c24.3 0 44 19.7 44 44s-19.7 44-44 44H505c-24.3 0-44-19.7-44-44s19.7-44 44-44z" fill="#BFCBD9" p-id="1866"></path></svg>