<svg t="1595574398106" class="icon" viewBox="0 0 1024 1024" version="1.1" xmlns="http://www.w3.org/2000/svg" p-id="24674" width="200" height="200"><path d="M243.2 672h535.47V437.33H243.2V672z m64-170.67h407.47V608H307.2V501.33zM597.7 298.67h64V384h-64z" p-id="24675"></path><path d="M349.87 524.8h64v64h-64zM465.07 524.8h64v64h-64zM726.45 206.78h64v176.61h-64zM854.27 132.27h64V383.4h-64z" p-id="24676"></path><path d="M857.6 510.34c0 189.13-153.87 342.99-342.99 342.99S171.62 699.47 171.62 510.34s153.86-342.99 342.99-342.99c29.07 0 57.93 3.64 85.79 10.81l21.28-82.64c-34.8-8.96-70.83-13.5-107.07-13.5-236.18 0-428.32 192.15-428.32 428.33 0 236.18 192.15 428.32 428.32 428.32 236.18 0 428.32-192.15 428.32-428.32H857.6z" p-id="24677"></path></svg>