<?xml version="1.0" standalone="no"?><!DOCTYPE svg PUBLIC "-//W3C//DTD SVG 1.1//EN" "http://www.w3.org/Graphics/SVG/1.1/DTD/svg11.dtd"><svg t="1592143476605" class="icon" viewBox="0 0 1024 1024" version="1.1" xmlns="http://www.w3.org/2000/svg" p-id="3115" xmlns:xlink="http://www.w3.org/1999/xlink" width="200" height="200"><defs><style type="text/css"></style></defs><path d="M402.7904 61.44H143.07328A70.8608 70.8608 0 0 0 92.5696 82.6368 72.84736 72.84736 0 0 0 71.68 133.85728v263.4752a72.89856 72.89856 0 0 0 20.8896 51.21024 70.8096 70.8096 0 0 0 50.4832 21.1968h259.70688a70.8096 70.8096 0 0 0 50.4832-21.1968 72.89856 72.89856 0 0 0 20.8896-51.22048V133.86752a72.89856 72.89856 0 0 0-20.8896-51.22048A70.72768 70.72768 0 0 0 402.80064 61.44z m536.24832 21.20704a70.7584 70.7584 0 0 0-50.4832-21.1968H628.81792a70.8096 70.8096 0 0 0-50.4832 21.1968 72.89856 72.89856 0 0 0-20.8896 51.22048v263.4752a72.89856 72.89856 0 0 0 20.8896 51.22048 70.8096 70.8096 0 0 0 50.4832 21.1968h259.6864a70.8096 70.8096 0 0 0 50.49344-21.1968 72.9088 72.9088 0 0 0 20.91008-51.22048v-263.4752a72.83712 72.83712 0 0 0-20.8896-51.22048z m-536.2688 471.61344l0.02048-0.01024H143.07328a70.8608 70.8608 0 0 0-50.50368 21.1968A72.84736 72.84736 0 0 0 71.68 626.65728v263.4752a72.94976 72.94976 0 0 0 20.8896 51.23072A70.7584 70.7584 0 0 0 143.0528 962.56h259.70688a70.8096 70.8096 0 0 0 50.4832-21.1968 72.89856 72.89856 0 0 0 20.8896-51.22048v-263.4752a72.89856 72.89856 0 0 0-20.8896-51.21024 70.77888 70.77888 0 0 0-50.46272-21.1968z m485.7856 0v-0.01024H628.81792a70.8096 70.8096 0 0 0-50.4832 21.1968 72.89856 72.89856 0 0 0-20.8896 51.21024v263.4752a72.93952 72.93952 0 0 0 20.87936 51.22048A70.83008 70.83008 0 0 0 628.81792 962.56h259.71712a70.8608 70.8608 0 0 0 50.50368-21.1968 72.84736 72.84736 0 0 0 20.8896-51.22048v-263.4752a72.89856 72.89856 0 0 0-20.8896-51.21024 70.81984 70.81984 0 0 0-50.4832-21.1968z" p-id="3116"></path></svg>