<svg t="1596606764386" class="icon" viewBox="0 0 1024 1024" version="1.1" xmlns="http://www.w3.org/2000/svg" p-id="15433" width="200" height="200"><path d="M685 374h20c16.6 0 30 13.4 30 30s-13.4 30-30 30h-20c-16.6 0-30-13.4-30-30s13.4-30 30-30z m-140 0h50c16.6 0 30 13.4 30 30s-13.4 30-30 30h-50c-16.6 0-30-13.4-30-30s13.4-30 30-30z m-110 0h20c16.6 0 30 13.4 30 30s-13.4 30-30 30h-20c-16.6 0-30-13.4-30-30s13.4-30 30-30z m113 396h202c16.6 0 30 13.4 30 30s-13.4 30-30 30H548c-16.6 0-30-13.4-30-30s13.4-30 30-30z m-138 0h48c16.6 0 30 13.4 30 30s-13.4 30-30 30h-48c-16.6 0-30-13.4-30-30s13.4-30 30-30zM630 680h40c16.6 0 30 13.4 30 30s-13.4 30-30 30h-40c-16.6 0-30-13.4-30-30s13.4-30 30-30z m-210 0h120c16.6 0 30 13.4 30 30s-13.4 30-30 30H420c-16.6 0-30-13.4-30-30s13.4-30 30-30z m-90 0c16.6 0 30 13.4 30 30s-13.4 30-30 30-30-13.4-30-30 13.4-30 30-30z" fill="#13227a" p-id="15434"></path><path d="M361.9 860H742V701c0-87.8-71.2-159-159-159h-31c-16.6 0-30-13.4-30-30s13.4-30 30-30h31c87.8 0 159-71.2 159-159v-79c0-16.6 13.4-30 30-30s30 13.4 30 30v79c0 80.6-43.5 151-108.3 189C758.5 550 802 620.4 802 701v159h78c16.6 0 30 13.4 30 30s-13.4 30-30 30H144c-16.6 0-30-13.4-30-30s13.4-30 30-30h79v-22c0-16.2 12.9-29.5 29-30h55c29.4 0 53.4 23 54.9 52zM253 758h-1c-16.6 0-30-13.4-30-30v-27c0-80.6 43.5-151 108.3-189C265.5 474 222 403.6 222 323V164h-78c-16.6 0-30-13.4-30-30s13.4-30 30-30h736c16.6 0 30 13.4 30 30s-13.4 30-30 30H422c-33.1 0-60 26.9-60 60v93c0 120 76 165 108 165h2c16.6 0 30 13.4 30 30s-13.4 30-30 30h-2c-60 0-108.5 34-108.5 163 0 53-73.5 53-108.5 53z" fill="" p-id="15435"></path></svg>