<?xml version="1.0" standalone="no"?><!DOCTYPE svg PUBLIC "-//W3C//DTD SVG 1.1//EN" "http://www.w3.org/Graphics/SVG/1.1/DTD/svg11.dtd"><svg t="1592133803532" class="icon" viewBox="0 0 1024 1024" version="1.1" xmlns="http://www.w3.org/2000/svg" p-id="814" xmlns:xlink="http://www.w3.org/1999/xlink" width="200" height="200"><defs><style type="text/css"></style></defs><path d="M998.17738 464.503243" p-id="815"></path><path d="M928.334685 622.831224c1.151219 7.230682 0.8913 15.877619-0.943488 26.094308-1.782599 10.165524-4.820796 20.589944-9.011234 31.066553-4.192485 10.480702-9.328459 19.962657-15.300474 28.344558-5.972015 8.385994-12.571317 14.410198-19.803022 18.023492-7.230682 3.617387-13.518898 5.395894-18.863626 5.395894-5.448082 0-11.420097-1.151219-18.023492-3.561106-6.024204-1.782599-13.514805-3.405563-22.529109-4.925173-9.009188-1.518586-18.180058-1.834788-27.453259-0.943488s-18.547425 2.830465-27.872814 5.816472c-9.324366 2.986007-17.288758 8.123005-23.892153 15.297404-14.353916 15.037485-22.792099 32.118512-25.146727 51.293223-2.358721 19.174712 0.312108 37.514405 8.066723 54.910611 5.972015 11.996219 5.136997 24.047696-2.670829 36.043914-3.616364 4.820796-9.376555 9.797134-17.131169 14.829753-7.754614 5.132904-16.400528 9.797134-25.622564 13.986549-9.325389 4.193509-19.072381 7.546883-29.288047 9.901511-10.216689 2.409886-19.2269 3.565199-27.033703 3.565199-5.395894 0-10.476609-2.098801-15.297404-6.288217-4.820796-4.193509-8.018627-8.698103-9.849322-13.518898l-0.8913 0c-6.603395-18.599613-17.86795-34.632775-33.792641-48.14758-15.928784-13.518898-34.371832-20.277836-55.382355-20.277836-20.433378 0-38.873356 6.758937-55.378262 20.277836-16.504906 13.514805-28.084639 29.235858-34.68394 47.204092-2.986007 7.230682-7.491625 12.472056-13.518898 15.773242-5.972015 3.298116-12.57234 4.976338-19.803022 4.976338-8.381901 0-17.86795-1.467421-28.344558-4.504594-10.532891-3.042289-21.0095-6.758937-31.54239-11.264555-10.477632-4.508687-19.962657-9.744945-28.396747-15.773242-8.382924-5.972015-14.670118-11.996219-18.859533-18.023492-3.042289-4.189416-4.665253-9.113565-4.980431-14.82566-0.312108-5.659907 1.939165-13.674441 6.758937-23.839965 6.603395-13.831007 9.169847-29.547966 7.65126-47.25628-1.51961-17.712407-9.169847-34.004465-22.948665-49.095161-8.43409-9.010211-18.599613-14.82566-30.598902-17.551748-11.996219-2.669806-23.420409-3.717671-34.213219-3.14155-12.571317 0.576121-25.515117 2.986007-38.665625 7.230682-8.43409 2.354628-16.817014 1.727341-25.198915-1.834788-6.603395-2.409886-12.787234-7.910157-18.444071-16.60826-5.712095-8.698103-10.791787-18.339694-15.297404-28.816303-4.508687-10.480702-7.966439-21.325701-10.376325-32.429597-2.410909-11.107989-3.038196-20.22667-1.779529-27.405163 1.886977-13.202697 7.858992-21.585621 18.075681-25.251104 18.024515-7.230682 34.213219-19.019169 48.619324-35.576263 14.410198-16.504906 21.63781-34.947953 21.63781-55.379285 0-21.008476-7.175423-39.295981-21.63781-54.909587-14.406105-15.561417-30.594809-26.930349-48.619324-34.161031-5.395894-1.778506-9.904581-6.127558-13.518898-13.043061-3.561106-6.915503-5.395894-13.990642-5.395894-21.113877 0-7.806803 1.203408-16.504906 3.613294-26.146497s5.556553-18.914792 9.486048-27.925003c3.877307-9.013281 8.381901-17.23657 13.462616-24.783453 5.084808-7.439436 10.637268-12.990872 16.660448-16.60826 4.768607-2.986007 9.43386-4.189416 13.938454-3.560082 4.453429 0.575098 9.429767 1.782599 14.877849 3.560082 17.972327 7.179516 36.731576 9.43386 56.274678 6.758937 19.48682-2.726088 36.778648-11.212366 51.760874-25.669636 7.230682-7.18054 12.471033-16.033162 15.721053-26.566052 3.298116-10.477632 5.395894-20.849864 6.284123-31.067576 0.8913-10.1645 0.8913-19.490913 0-27.872814-0.88823-8.438183-1.622964-14.410198-2.251274-18.023492-1.206478-3.618411-2.254344-7.806803-3.145643-12.627598-0.887206-4.768607-0.415462-8.958022 1.363044-12.57541 3.566222-8.382924 10.008958-15.717983 19.335371-22.057365 9.325389-6.287193 19.330254-11.528568 30.179346-15.71696 10.844999-4.193509 21.321608-7.387247 31.538297-9.486048 10.165524-2.094708 18.283412-3.14155 24.311709-3.14155 7.806803 0 13.934361 2.566452 18.443048 7.650237 4.505617 5.132904 7.647167 10.373255 9.429767 15.770172 6.600325 16.188704 17.448394 30.490431 32.429597 42.750663 15.037485 12.259208 32.745798 18.443048 53.129035 18.443048 21.008476 0 39.60809-5.867638 55.796794-17.551748 16.240893-11.68411 27.612894-26.561959 34.161031-44.585451 2.462075-4.768607 6.183839-9.69378 11.31572-14.826684 5.028527-5.083785 10.32209-7.650237 15.666818-7.650237 8.380878 0 17.603937 1.203408 27.453259 3.561106 9.849322 2.410909 19.650549 5.712095 29.288047 9.905604 9.589402 4.189416 18.494213 9.585309 26.566052 16.188704 8.066723 6.600325 14.510482 13.831007 19.331277 21.63781 3.039219 4.768607 3.929496 10.004865 2.726088 15.71696-1.155313 5.712095-2.409886 9.797134-3.617387 12.155854-7.753591 17.396205-10.161431 35.731806-7.175423 54.906517 2.986007 19.230993 11.736299 36.048007 26.090215 50.401923 14.410198 14.410198 32.118512 22.373567 53.128011 23.892153 21.0095 1.518586 40.500413-1.939165 58.520835-10.373255 4.767584-2.986007 10.636245-4.189416 17.550725-3.561106 6.92062 0.575098 12.730952 3.301186 17.551748 8.066723 9.014304 8.438183 16.924461 21.169135 23.839965 38.249139 6.915503 17.133216 11.57871 34.368762 13.990642 51.760874 1.151219 10.216689-0.471744 18.184151-4.976338 23.892153-4.50971 5.712095-9.169847 9.43386-13.93743 11.264555-18.600637 6.603395-34.529421 18.131963-47.733141 34.632775-13.202697 16.504906-19.801998 35.260062-19.801998 56.269561 0 20.434401 5.498224 38.250162 16.607236 53.547567 11.107989 15.297404 25.670659 26.249851 43.694151 32.850176 4.193509 2.409886 7.754614 4.820796 10.79281 7.230682C921.47137 607.53382 925.976988 614.397135 928.334685 622.831224L928.334685 622.831224zM509.754355 709.839881c27.810393 0 54.107315-5.28947 78.839603-15.766079 24.732288-10.477632 46.225811-25.057699 64.4775-43.635823 18.251689-18.576077 32.615838-40.013319 43.148729-64.423265 10.470469-24.460088 15.766079-50.596352 15.766079-78.459956 0-27.813462-5.29561-54.003961-15.766079-78.411861-10.532891-24.463158-24.89704-45.792952-43.148729-64.043618-18.251689-18.250666-39.745213-32.616862-64.4775-43.094494-24.732288-10.529821-51.02921-15.766079-78.839603-15.766079-27.866674 0-54.003961 5.236258-78.410837 15.766079-24.464181 10.477632-45.792952 24.89704-63.990407 43.148729-18.304901 18.250666-32.671097 39.58046-43.201941 64.044642-10.477632 24.409946-15.767102 50.544163-15.767102 78.357626 0 27.863604 5.28947 53.999868 15.767102 78.459956 10.530844 24.409946 24.89704 45.9004 43.147706 64.423265 18.251689 18.577101 39.526225 33.104979 63.99143 43.635823C455.750393 704.603623 481.886657 709.839881 509.754355 709.839881L509.754355 709.839881z" p-id="816"></path><path d="M527.16284 706.901968" p-id="817"></path></svg>